<?xml version="1.0" encoding="UTF-8" standalone="no"?>
<svg xmlns="http://www.w3.org/2000/svg" class="card" face="2B" height="3.5in" preserveAspectRatio="none" viewBox="-106 -164.5 212 329" width="2.25in"><defs><pattern id="B2" width="20" height="20" patternUnits="userSpaceOnUse"><path d="M0 0h10v10h-10zM10 10h10v10h-10z" fill="red"></path><path d="M0 -3.332l1.666 1.666l-3.332 3.332l1.666 1.666l1.666 -1.666l-3.332 -3.332z" opacity="0.75" fill="black"></path><path d="M3.332 0l-1.666 1.666l-3.332 -3.332l-1.666 1.666l1.666 1.666l3.332 -3.332z" opacity="0.75" fill="white"></path><path d="M0 6.668l1.666 1.666l-3.332 3.332l1.666 1.666l1.666 -1.666l-3.332 -3.332z" opacity="0.75" fill="white"></path><path d="M3.332 10l-1.666 1.666l-3.332 -3.332l-1.666 1.666l1.666 1.666l3.332 -3.332z" opacity="0.75" fill="black"></path><path d="M0 16.668l1.666 1.666l-3.332 3.332l1.666 1.666l1.666 -1.666l-3.332 -3.332z" opacity="0.75" fill="black"></path><path d="M3.332 20l-1.666 1.666l-3.332 -3.332l-1.666 1.666l1.666 1.666l3.332 -3.332z" opacity="0.75" fill="white"></path><path d="M10 -3.332l1.666 1.666l-3.332 3.332l1.666 1.666l1.666 -1.666l-3.332 -3.332z" opacity="0.75" fill="white"></path><path d="M13.332 0l-1.666 1.666l-3.332 -3.332l-1.666 1.666l1.666 1.666l3.332 -3.332z" opacity="0.75" fill="black"></path><path d="M10 6.668l1.666 1.666l-3.332 3.332l1.666 1.666l1.666 -1.666l-3.332 -3.332z" opacity="0.75" fill="black"></path><path d="M13.332 10l-1.666 1.666l-3.332 -3.332l-1.666 1.666l1.666 1.666l3.332 -3.332z" opacity="0.75" fill="white"></path><path d="M10 16.668l1.666 1.666l-3.332 3.332l1.666 1.666l1.666 -1.666l-3.332 -3.332z" opacity="0.75" fill="white"></path><path d="M13.332 20l-1.666 1.666l-3.332 -3.332l-1.666 1.666l1.666 1.666l3.332 -3.332z" opacity="0.75" fill="black"></path><path d="M20 -3.332l1.666 1.666l-3.332 3.332l1.666 1.666l1.666 -1.666l-3.332 -3.332z" opacity="0.75" fill="black"></path><path d="M23.332 0l-1.666 1.666l-3.332 -3.332l-1.666 1.666l1.666 1.666l3.332 -3.332z" opacity="0.75" fill="white"></path><path d="M20 6.668l1.666 1.666l-3.332 3.332l1.666 1.666l1.666 -1.666l-3.332 -3.332z" opacity="0.75" fill="white"></path><path d="M23.332 10l-1.666 1.666l-3.332 -3.332l-1.666 1.666l1.666 1.666l3.332 -3.332z" opacity="0.75" fill="black"></path><path d="M20 16.668l1.666 1.666l-3.332 3.332l1.666 1.666l1.666 -1.666l-3.332 -3.332z" opacity="0.75" fill="black"></path><path d="M23.332 20l-1.666 1.666l-3.332 -3.332l-1.666 1.666l1.666 1.666l3.332 -3.332z" opacity="0.75" fill="white"></path></pattern></defs><rect width="211" height="328" x="-105.5" y="-164" rx="19" ry="19" fill="white" stroke="black"></rect><rect fill="url(#B2)" width="160" height="280" x="-80" y="-140" rx="19" ry="19"></rect></svg>