<?xml version="1.0" encoding="UTF-8" standalone="no"?>
<svg xmlns="http://www.w3.org/2000/svg" xmlns:xlink="http://www.w3.org/1999/xlink" class="card" face="8H" height="3.5in" preserveAspectRatio="none" viewBox="-120 -168 240 336" width="2.5in"><symbol id="SH8" viewBox="-600 -600 1200 1200" preserveAspectRatio="xMinYMid"><path d="M0 -300C0 -400 100 -500 200 -500C300 -500 400 -400 400 -250C400 0 0 400 0 500C0 400 -400 0 -400 -250C-400 -400 -300 -500 -200 -500C-100 -500 0 -400 -0 -300Z" fill="red"></path></symbol><rect width="239" height="335" x="-119.5" y="-167.5" rx="12" ry="12" fill="white" stroke="black"></rect><use xlink:href="#SH8" height="70" x="-97.501" y="-145.501"></use><use xlink:href="#SH8" height="70" x="27.501" y="-145.501"></use><use xlink:href="#SH8" height="70" x="-35" y="-90.25"></use><use xlink:href="#SH8" height="70" x="-97.501" y="-35"></use><use xlink:href="#SH8" height="70" x="27.501" y="-35"></use><g transform="rotate(180)"><use xlink:href="#SH8" height="70" x="-97.501" y="-145.501"></use><use xlink:href="#SH8" height="70" x="27.501" y="-145.501"></use><use xlink:href="#SH8" height="70" x="-35" y="-90.25"></use></g></svg>