<?xml version="1.0" encoding="UTF-8" standalone="no"?>
<svg xmlns="http://www.w3.org/2000/svg" xmlns:xlink="http://www.w3.org/1999/xlink" class="card" face="9D" height="3.5in" preserveAspectRatio="none" viewBox="-106 -164.5 212 329" width="2.25in"><symbol id="SD9" viewBox="-600 -600 1200 1200" preserveAspectRatio="xMinYMid"><path d="M-400 0C-350 0 0 -450 0 -500C0 -450 350 0 400 0C350 0 0 450 0 500C0 450 -350 0 -400 0Z" fill="red"></path></symbol><symbol id="VD9" viewBox="-500 -500 1000 1000" preserveAspectRatio="xMinYMid"><path d="M250 -100A250 250 0 0 1 -250 -100L-250 -210A250 250 0 0 1 250 -210L250 210A250 250 0 0 1 0 460C-150 460 -180 400 -200 375" stroke="red" stroke-width="80" stroke-linecap="square" stroke-miterlimit="1.5" fill="none"></path></symbol><defs><rect id="XD9" width="136.8" height="253.8" x="-68.4" y="-126.9"></rect></defs><rect width="211" height="328" x="-105.5" y="-164" rx="19" ry="19" fill="white" stroke="black"></rect><use xlink:href="#XD9" stroke="#88f" fill="#FFC"></use><use xlink:href="#VD9" height="32" x="-100.4" y="-145.5"></use><use xlink:href="#VD9" height="32" x="68.4" y="-145.5"></use><use xlink:href="#SD9" height="26.769" x="-97.784" y="-108.5"></use><use xlink:href="#SD9" height="26.769" x="71.016" y="-108.5"></use><use xlink:href="#SD9" height="54" x="-72.4" y="-126.4"></use><use xlink:href="#SD9" height="54" x="18.4" y="-126.4"></use><use xlink:href="#SD9" height="54" x="-72.4" y="-60.133"></use><use xlink:href="#SD9" height="54" x="18.4" y="-60.133"></use><use xlink:href="#SD9" height="54" x="-27" y="-27"></use><g transform="rotate(180)"><use xlink:href="#VD9" height="32" x="-100.4" y="-145.5"></use><use xlink:href="#VD9" height="32" x="68.4" y="-145.5"></use><use xlink:href="#SD9" height="26.769" x="-97.784" y="-108.5"></use><use xlink:href="#SD9" height="26.769" x="71.016" y="-108.5"></use><use xlink:href="#SD9" height="54" x="-72.4" y="-126.4"></use><use xlink:href="#SD9" height="54" x="18.4" y="-126.4"></use><use xlink:href="#SD9" height="54" x="-72.4" y="-60.133"></use><use xlink:href="#SD9" height="54" x="18.4" y="-60.133"></use></g></svg>