<?xml version="1.0" encoding="UTF-8" standalone="no"?>
<svg xmlns="http://www.w3.org/2000/svg" xmlns:xlink="http://www.w3.org/1999/xlink" class="card" face="9S" height="3.5in" preserveAspectRatio="none" viewBox="-106 -164.5 212 329" width="2.25in"><symbol id="SS9" viewBox="-600 -600 1200 1200" preserveAspectRatio="xMinYMid"><path d="M0 -500C100 -250 355 -100 355 185A150 150 0 0 1 55 185A10 10 0 0 0 35 185C35 385 85 400 130 500L-130 500C-85 400 -35 385 -35 185A10 10 0 0 0 -55 185A150 150 0 0 1 -355 185C-355 -100 -100 -250 0 -500Z" fill="black"></path></symbol><symbol id="VS9" viewBox="-500 -500 1000 1000" preserveAspectRatio="xMinYMid"><path d="M250 -100A250 250 0 0 1 -250 -100L-250 -210A250 250 0 0 1 250 -210L250 210A250 250 0 0 1 0 460C-150 460 -180 400 -200 375" stroke="black" stroke-width="80" stroke-linecap="square" stroke-miterlimit="1.5" fill="none"></path></symbol><defs><rect id="XS9" width="136.8" height="253.8" x="-68.4" y="-126.9"></rect></defs><rect width="211" height="328" x="-105.5" y="-164" rx="19" ry="19" fill="white" stroke="black"></rect><use xlink:href="#XS9" stroke="#88f" fill="#FFC"></use><use xlink:href="#VS9" height="32" x="-100.4" y="-145.5"></use><use xlink:href="#VS9" height="32" x="68.4" y="-145.5"></use><use xlink:href="#SS9" height="26.769" x="-97.784" y="-108.5"></use><use xlink:href="#SS9" height="26.769" x="71.016" y="-108.5"></use><use xlink:href="#SS9" height="54" x="-74.425" y="-126.4"></use><use xlink:href="#SS9" height="54" x="20.425" y="-126.4"></use><use xlink:href="#SS9" height="54" x="-74.425" y="-60.133"></use><use xlink:href="#SS9" height="54" x="20.425" y="-60.133"></use><use xlink:href="#SS9" height="54" x="-27" y="-27"></use><g transform="rotate(180)"><use xlink:href="#VS9" height="32" x="-100.4" y="-145.5"></use><use xlink:href="#VS9" height="32" x="68.4" y="-145.5"></use><use xlink:href="#SS9" height="26.769" x="-97.784" y="-108.5"></use><use xlink:href="#SS9" height="26.769" x="71.016" y="-108.5"></use><use xlink:href="#SS9" height="54" x="-74.425" y="-126.4"></use><use xlink:href="#SS9" height="54" x="20.425" y="-126.4"></use><use xlink:href="#SS9" height="54" x="-74.425" y="-60.133"></use><use xlink:href="#SS9" height="54" x="20.425" y="-60.133"></use></g></svg>