<?xml version="1.0" encoding="UTF-8" standalone="no"?>
<svg xmlns="http://www.w3.org/2000/svg" xmlns:xlink="http://www.w3.org/1999/xlink" class="card" face="AH" height="3.5in" preserveAspectRatio="none" viewBox="-106 -164.5 212 329" width="2.25in"><symbol id="VHA" viewBox="-500 -500 1000 1000" preserveAspectRatio="xMinYMid"><path d="M-270 460L-110 460M-200 450L0 -460L200 450M110 460L270 460M-120 130L120 130" stroke="red" stroke-width="80" stroke-linecap="square" stroke-miterlimit="1.5" fill="none"></path></symbol><symbol id="SHA" viewBox="-600 -600 1200 1200" preserveAspectRatio="xMinYMid"><path d="M0 -300C0 -400 100 -500 200 -500C300 -500 400 -400 400 -250C400 0 0 400 0 500C0 400 -400 0 -400 -250C-400 -400 -300 -500 -200 -500C-100 -500 0 -400 -0 -300Z" fill="red"></path></symbol><defs><rect id="XHA" width="136.8" height="253.8" x="-68.4" y="-126.9"></rect></defs><rect width="211" height="328" x="-105.5" y="-164" rx="19" ry="19" fill="white" stroke="black"></rect><use xlink:href="#XHA" stroke="#88f" fill="#FFC"></use><use xlink:href="#SHA" height="54" x="-27" y="-27"></use><use xlink:href="#VHA" height="32" x="-100.4" y="-145.5"></use><use xlink:href="#VHA" height="32" x="68.4" y="-145.5"></use><use xlink:href="#SHA" height="26.769" x="-97.784" y="-108.5"></use><use xlink:href="#SHA" height="26.769" x="71.016" y="-108.5"></use><g transform="rotate(180)"><use xlink:href="#VHA" height="32" x="-100.4" y="-145.5"></use><use xlink:href="#VHA" height="32" x="68.4" y="-145.5"></use><use xlink:href="#SHA" height="26.769" x="-97.784" y="-108.5"></use><use xlink:href="#SHA" height="26.769" x="71.016" y="-108.5"></use></g></svg>