<?xml version="1.0" encoding="UTF-8" standalone="no"?>
<svg xmlns="http://www.w3.org/2000/svg" xmlns:xlink="http://www.w3.org/1999/xlink" class="card" face="TC" height="3.5in" preserveAspectRatio="none" viewBox="-106 -164.5 212 329" width="2.25in"><symbol id="SCT" viewBox="-600 -600 1200 1200" preserveAspectRatio="xMinYMid"><path d="M30 150C35 385 85 400 130 500L-130 500C-85 400 -35 385 -30 150A10 10 0 0 0 -50 150A210 210 0 1 1 -124 -51A10 10 0 0 0 -110 -65A230 230 0 1 1 110 -65A10 10 0 0 0 124 -51A210 210 0 1 1 50 150A10 10 0 0 0 30 150Z" fill="black"></path></symbol><symbol id="VCT" viewBox="-500 -500 1000 1000" preserveAspectRatio="xMinYMid"><path d="M-260 430L-260 -430M-50 0L-50 -310A150 150 0 0 1 250 -310L250 310A150 150 0 0 1 -50 310Z" stroke="black" stroke-width="80" stroke-linecap="square" stroke-miterlimit="1.5" fill="none"></path></symbol><defs><rect id="XCT" width="136.8" height="253.8" x="-68.4" y="-126.9"></rect></defs><rect width="211" height="328" x="-105.5" y="-164" rx="19" ry="19" fill="none" stroke="black"></rect><use xlink:href="#XCT" stroke="#88f" fill="#FFC"></use><use xlink:href="#VCT" height="32" x="-100.4" y="-145.5"></use><use xlink:href="#VCT" height="32" x="68.4" y="-145.5"></use><use xlink:href="#SCT" height="26.769" x="-97.784" y="-108.5"></use><use xlink:href="#SCT" height="26.769" x="71.016" y="-108.5"></use><use xlink:href="#SCT" height="54" x="-69.408" y="-126.468"></use><use xlink:href="#SCT" height="54" x="15.408" y="-126.468"></use><use xlink:href="#SCT" height="54" x="-69.408" y="-60.156"></use><use xlink:href="#SCT" height="54" x="15.408" y="-60.156"></use><use xlink:href="#SCT" height="54" x="-27" y="-93.312"></use><g transform="rotate(180)"><use xlink:href="#VCT" height="32" x="-100.4" y="-145.5"></use><use xlink:href="#VCT" height="32" x="68.4" y="-145.5"></use><use xlink:href="#SCT" height="26.769" x="-97.784" y="-108.5"></use><use xlink:href="#SCT" height="26.769" x="71.016" y="-108.5"></use><use xlink:href="#SCT" height="54" x="-69.408" y="-126.468"></use><use xlink:href="#SCT" height="54" x="15.408" y="-126.468"></use><use xlink:href="#SCT" height="54" x="-69.408" y="-60.156"></use><use xlink:href="#SCT" height="54" x="15.408" y="-60.156"></use><use xlink:href="#SCT" height="54" x="-27" y="-93.312"></use></g></svg>